<svg height="20" viewBox="0 0 14 14" fill="none" xmlns="http://www.w3.org/2000/svg">
<path d="M6.67188 0.546875C7.25521 0 8.04818 -0.136719 9.05078 0.136719C10.0716 0.391927 11.0742 1.0026 12.0586 1.96875C13.0065 2.9349 13.6081 3.92839 13.8633 4.94922C14.1367 5.95182 14 6.74479 13.4531 7.32812L12.3594 8.44922C11.6849 9.10547 10.9284 9.60677 10.0898 9.95312C9.23307 10.3177 8.33984 10.5 7.41016 10.5H5.82422C5.6237 10.5 5.45052 10.5729 5.30469 10.7188C5.04948 11.0469 5.00391 11.4206 5.16797 11.8398C5.22266 12.0039 5.25 12.1771 5.25 12.3594C5.23177 12.8151 5.06771 13.1979 4.75781 13.5078C4.44792 13.8177 4.0651 13.9818 3.60938 14C3.13542 13.9818 2.74349 13.8177 2.43359 13.5078C2.14193 13.1979 1.98698 12.8151 1.96875 12.3594C1.95052 12.1589 1.84115 12.0495 1.64062 12.0312C1.16667 12.013 0.77474 11.849 0.464844 11.5391C0.173177 11.2292 0.0182292 10.8464 0 10.3906C0.0182292 9.9349 0.173177 9.55208 0.464844 9.24219C0.77474 8.93229 1.16667 8.76823 1.64062 8.75C1.82292 8.75 1.99609 8.77734 2.16016 8.83203C2.57943 8.99609 2.95312 8.95052 3.28125 8.69531C3.42708 8.54948 3.5 8.3763 3.5 8.17578V6.58984C3.5 5.66016 3.67318 4.76693 4.01953 3.91016C4.38411 3.07161 4.89453 2.3151 5.55078 1.64062L6.67188 0.546875ZM8.42188 5.57812C9.11458 6.27083 9.82552 6.71745 10.5547 6.91797C11.3021 7.10026 11.8854 7 12.3047 6.61719C12.6875 6.19792 12.7878 5.61458 12.6055 4.86719C12.4049 4.13802 11.9583 3.42708 11.2656 2.73438C10.5729 2.04167 9.86198 1.59505 9.13281 1.39453C8.38542 1.21224 7.80208 1.3125 7.38281 1.69531C7 2.11458 6.89974 2.69792 7.08203 3.44531C7.28255 4.17448 7.72917 4.88542 8.42188 5.57812ZM9.40625 4.59375C9.1875 4.375 9.05078 4.15625 8.99609 3.9375C8.94141 3.70052 8.96875 3.51823 9.07812 3.39062C9.22396 3.28125 9.40625 3.25391 9.625 3.30859C9.84375 3.36328 10.0625 3.5 10.2812 3.71875C10.5 3.9375 10.6367 4.15625 10.6914 4.375C10.7461 4.59375 10.7188 4.77604 10.6094 4.92188C10.4818 5.03125 10.2995 5.05859 10.0625 5.00391C9.84375 4.94922 9.625 4.8125 9.40625 4.59375Z" fill="#DD8500"/>
</svg>
