<svg width="22" height="19" viewBox="0 0 22 19" fill="none" xmlns="http://www.w3.org/2000/svg">
<path d="M0 1.58333C0 1.12153 0.147321 0.742188 0.441964 0.445312C0.736607 0.148438 1.1131 0 1.57143 0H20.4286C20.8869 0 21.2634 0.148438 21.558 0.445312C21.8527 0.742188 22 1.12153 22 1.58333C22 2.04514 21.8527 2.42448 21.558 2.72135C21.2634 3.01823 20.8869 3.16667 20.4286 3.16667H1.57143C1.1131 3.16667 0.736607 3.01823 0.441964 2.72135C0.147321 2.42448 0 2.04514 0 1.58333ZM0 9.5C0 9.03819 0.147321 8.65885 0.441964 8.36198C0.736607 8.0651 1.1131 7.91667 1.57143 7.91667H20.4286C20.8869 7.91667 21.2634 8.0651 21.558 8.36198C21.8527 8.65885 22 9.03819 22 9.5C22 9.96181 21.8527 10.3411 21.558 10.638C21.2634 10.9349 20.8869 11.0833 20.4286 11.0833H1.57143C1.1131 11.0833 0.736607 10.9349 0.441964 10.638C0.147321 10.3411 0 9.96181 0 9.5ZM22 17.4167C22 17.8785 21.8527 18.2578 21.558 18.5547C21.2634 18.8516 20.8869 19 20.4286 19H1.57143C1.1131 19 0.736607 18.8516 0.441964 18.5547C0.147321 18.2578 0 17.8785 0 17.4167C0 16.9549 0.147321 16.5755 0.441964 16.2786C0.736607 15.9818 1.1131 15.8333 1.57143 15.8333H20.4286C20.8869 15.8333 21.2634 15.9818 21.558 16.2786C21.8527 16.5755 22 16.9549 22 17.4167Z" fill="black" fill-opacity="0.7"/>
</svg>
