<svg xmlns="http://www.w3.org/2000/svg" width="28" height="28" fill="none"><rect width="28" height="28" fill="url(#a)" rx="8"/><path fill="#000" fill-opacity=".7" d="M19.847 6.844c.187-.209.198-.427.031-.657-.188-.208-.406-.24-.656-.093l-3.314 2.218c-.916.626-1.385 1.49-1.406 2.594 0 .625.167 1.188.5 1.688l-7.72 7.687A1.043 1.043 0 0 0 7 21c0 .27.094.51.282.719.208.187.448.281.719.281.27 0 .51-.094.719-.281L16.409 14c.52.333 1.083.5 1.687.5 1.105-.02 1.97-.49 2.595-1.406L22.91 9.78c.146-.25.114-.469-.094-.656-.23-.167-.448-.156-.656.031l-3.157 3.125-.563-.562 2.938-3.375c.167-.25.157-.48-.03-.688-.21-.187-.428-.198-.657-.031l-3.407 2.938L16.72 10l3.126-3.156Zm-13.19-.625A.832.832 0 0 0 6.094 6c-.375.02-.625.208-.75.563-.063.333-.136.729-.219 1.187A6.686 6.686 0 0 0 5 9c0 1.25.354 2.354 1.063 3.313.708.958 1.698 2.03 2.97 3.218.103.104.197.209.28.313.125.104.24.208.344.312.063.063.125.115.188.157l3.438-3.438-6.626-6.656Zm12.627 15.5c.209.187.448.281.72.281.27 0 .51-.094.718-.281.188-.209.281-.448.281-.719 0-.27-.093-.51-.281-.719l-4.595-4.562-1.406 1.406 4.563 4.594Z"/><defs><linearGradient id="a" x1="2.5" x2="25.5" y1="2.5" y2="25.5" gradientUnits="userSpaceOnUse"><stop stop-color="#EBD5B5"/><stop offset="1" stop-color="#B6A080"/></linearGradient></defs></svg>